ffmpeg started on 2026-01-13 at 12:13:39
Report written to "D:\Convert\FFMetrics\reports\psnr_report-6.txt"
Log level: 32
Command line:
ffmpeg -hide_banner -nostdin -r 24000/1001 -i "F:\\Convert\\files\\[DC] Make Heroine ga Oosugiru - 07_Telegram_HEVC(91).mkv" -r 24000/1001 -i "F:\\Convert\\files\\[DC] Make Heroine ga Oosugiru - 07_Telegram.mp4" -lavfi "[0:v]settb=AVTB,setpts=PTS-STARTPTS,format=pix_fmts=yuv420p10le,fps=24000/1001,scale=1920:1080:flags=lanczos:param0=3:out_range=limited:out_color_matrix=bt709:out_chroma_loc=left,setsar=1/1,setdar=(1920/1080)*(1/1),colorspace=format=yuv420p10:range=tv:primaries=bt709:trc=bt709:space=bt709:fast=0[main];[1:v]settb=AVTB,setpts=PTS-STARTPTS,format=pix_fmts=yuv420p,fps=24000/1001,scale=1920:1080:flags=lanczos:param0=3:out_range=limited:out_color_matrix=bt709:out_chroma_loc=left,setsar=1.000,setdar=1.778,colorspace=format=yuv420p:range=tv:primaries=bt709:trc=bt709:space=bt709:fast=0[ref];[main][ref]psnr=eof_action=endall:stats_file='D\\:/Convert/FFMetrics/logs/psnr_logfile-6.txt'" -f null -
Input #0, matroska,webm, from 'F:\Convert\files\[DC] Make Heroine ga Oosugiru - 07_Telegram_HEVC(91).mkv':
  Metadata:
    COMPATIBLE_BRANDS: isomiso2avc1mp41
    MAJOR_BRAND     : isom
    MINOR_VERSION   : 512
    ENCODER         : Lavf61.7.100
  Duration: 00:24:06.79, start: -0.021000, bitrate: 978 kb/s
  Stream #0:0: Video: hevc (Main 10), yuv420p10le(tv, bt709, progressive), 1920x1080 [SAR 1:1 DAR 16:9], 23.98 fps, 23.98 tbr, 1k tbn (default)
      Metadata:
        HANDLER_NAME    : VideoHandler
        VENDOR_ID       : [0][0][0][0]
        ENCODER         : Lavc61.19.100 libx265
        BPS             : 781402
        DURATION        : 00:24:06.569708333
        NUMBER_OF_FRAMES: 34683
        NUMBER_OF_BYTES : 141294147
        _STATISTICS_WRITING_APP: mkvpropedit v94.0 ('Initiate') 64-bit
        _STATISTICS_WRITING_DATE_UTC: 2026-01-11 18:02:33
        _STATISTICS_TAGS: BPS DURATION NUMBER_OF_FRAMES NUMBER_OF_BYTES
  Stream #0:1: Audio: aac (LC), 48000 Hz, stereo, fltp (default)
      Metadata:
        HANDLER_NAME    : SoundHandler
        VENDOR_ID       : [0][0][0][0]
        ENCODER         : Lavc61.19.100 aac
        BPS             : 193194
        DURATION        : 00:24:06.784000000
        NUMBER_OF_FRAMES: 67819
        NUMBER_OF_BYTES : 34938755
        _STATISTICS_WRITING_APP: mkvpropedit v94.0 ('Initiate') 64-bit
        _STATISTICS_WRITING_DATE_UTC: 2026-01-11 18:02:33
        _STATISTICS_TAGS: BPS DURATION NUMBER_OF_FRAMES NUMBER_OF_BYTES
Input #1, mov,mp4,m4a,3gp,3g2,mj2, from 'F:\Convert\files\[DC] Make Heroine ga Oosugiru - 07_Telegram.mp4':
  Metadata:
    major_brand     : isom
    minor_version   : 512
    compatible_brands: isomiso2avc1mp41
    encoder         : Lavf60.16.100
  Duration: 00:24:06.74, start: 0.000000, bitrate: 3764 kb/s
  Stream #1:0[0x1](und): Video: h264 (High) (avc1 / 0x31637661), yuv420p(tv, bt709, progressive), 1920x1080 [SAR 1:1 DAR 16:9], 3616 kb/s, 23.98 fps, 23.98 tbr, 24k tbn (default)
      Metadata:
        handler_name    : VideoHandler
        vendor_id       : [0][0][0][0]
        encoder         : Lavc60.31.102 h264_qsv
  Stream #1:1[0x2](und): Audio: aac (HE-AACv2) (mp4a / 0x6134706D), 48000 Hz, stereo, fltp, 144 kb/s (default)
      Metadata:
        handler_name    : SoundHandler
        vendor_id       : [0][0][0][0]
Stream mapping:
  Stream #0:0 (hevc) -> settb:default
  Stream #1:0 (h264) -> settb:default
  psnr:default -> Stream #0:0 (wrapped_avframe)
  Stream #0:1 -> #0:1 (aac (native) -> pcm_s16le (native))
Output #0, null, to 'pipe:':
  Metadata:
    COMPATIBLE_BRANDS: isomiso2avc1mp41
    MAJOR_BRAND     : isom
    MINOR_VERSION   : 512
    encoder         : Lavf61.7.100
  Stream #0:0: Video: wrapped_avframe, yuv420p10le(tv, bt709, progressive), 1920x1080 [SAR 1:1 DAR 16:9], q=2-31, 200 kb/s, 23.98 fps, 23.98 tbn
      Metadata:
        encoder         : Lavc61.19.100 wrapped_avframe
  Stream #0:1: Audio: pcm_s16le, 48000 Hz, stereo, s16, 1536 kb/s (default)
      Metadata:
        HANDLER_NAME    : SoundHandler
        VENDOR_ID       : [0][0][0][0]
        _STATISTICS_TAGS: BPS DURATION NUMBER_OF_FRAMES NUMBER_OF_BYTES
        BPS             : 193194
        DURATION        : 00:24:06.784000000
        NUMBER_OF_FRAMES: 67819
        NUMBER_OF_BYTES : 34938755
        _STATISTICS_WRITING_APP: mkvpropedit v94.0 ('Initiate') 64-bit
        _STATISTICS_WRITING_DATE_UTC: 2026-01-11 18:02:33
        encoder         : Lavc61.19.100 pcm_s16le
frame=  122 fps=0.0 q=-0.0 size=N/A time=00:00:05.08 bitrate=N/A speed=9.75x    frame=  250 fps=242 q=-0.0 size=N/A time=00:00:10.42 bitrate=N/A speed=10.1x    frame=  416 fps=270 q=-0.0 size=N/A time=00:00:17.35 bitrate=N/A speed=11.2x    frame=  588 fps=284 q=-0.0 size=N/A time=00:00:24.52 bitrate=N/A speed=11.9x    frame=  767 fps=298 q=-0.0 size=N/A time=00:00:31.99 bitrate=N/A speed=12.4x    frame=  917 fps=297 q=-0.0 size=N/A time=00:00:38.24 bitrate=N/A speed=12.4x    frame= 1054 fps=292 q=-0.0 size=N/A time=00:00:43.96 bitrate=N/A speed=12.2x    frame= 1197 fps=290 q=-0.0 size=N/A time=00:00:49.92 bitrate=N/A speed=12.1x    frame= 1350 fps=290 q=-0.0 size=N/A time=00:00:56.30 bitrate=N/A speed=12.1x    frame= 1499 fps=290 q=-0.0 size=N/A time=00:01:02.52 bitrate=N/A speed=12.1x    frame= 1631 fps=287 q=-0.0 size=N/A time=00:01:08.02 bitrate=N/A speed=  12x    frame= 1777 fps=287 q=-0.0 size=N/A time=00:01:14.11 bitrate=N/A speed=11.9x    frame= 1925 fps=286 q=-0.0 size=N/A time=00:01:20.28 bitrate=N/A speed=11.9x    frame= 2057 fps=284 q=-0.0 size=N/A time=00:01:25.79 bitrate=N/A speed=11.9x    frame= 2155 fps=278 q=-0.0 size=N/A time=00:01:29.88 bitrate=N/A speed=11.6x    frame= 2282 fps=276 q=-0.0 size=N/A time=00:01:35.17 bitrate=N/A speed=11.5x    frame= 2429 fps=277 q=-0.0 size=N/A time=00:01:41.30 bitrate=N/A speed=11.5x    frame= 2549 fps=274 q=-0.0 size=N/A time=00:01:46.31 bitrate=N/A speed=11.4x    frame= 2716 fps=277 q=-0.0 size=N/A time=00:01:53.27 bitrate=N/A speed=11.5x    frame= 2880 fps=279 q=-0.0 size=N/A time=00:02:00.12 bitrate=N/A speed=11.6x    frame= 3033 fps=280 q=-0.0 size=N/A time=00:02:06.50 bitrate=N/A speed=11.7x    frame= 3221 fps=283 q=-0.0 size=N/A time=00:02:14.34 bitrate=N/A speed=11.8x    frame= 3406 fps=287 q=-0.0 size=N/A time=00:02:22.05 bitrate=N/A speed=  12x    frame= 3582 fps=289 q=-0.0 size=N/A time=00:02:29.39 bitrate=N/A speed=12.1x    frame= 3766 fps=292 q=-0.0 size=N/A time=00:02:37.07 bitrate=N/A speed=12.2x    frame= 3942 fps=294 q=-0.0 size=N/A time=00:02:44.41 bitrate=N/A speed=12.2x    frame= 4118 fps=295 q=-0.0 size=N/A time=00:02:51.75 bitrate=N/A speed=12.3x    frame= 4304 fps=298 q=-0.0 size=N/A time=00:02:59.51 bitrate=N/A speed=12.4x    frame= 4457 fps=298 q=-0.0 size=N/A time=00:03:05.89 bitrate=N/A speed=12.4x    frame= 4628 fps=299 q=-0.0 size=N/A time=00:03:13.02 bitrate=N/A speed=12.5x    frame= 4816 fps=301 q=-0.0 size=N/A time=00:03:20.86 bitrate=N/A speed=12.6x    frame= 5001 fps=303 q=-0.0 size=N/A time=00:03:28.58 bitrate=N/A speed=12.6x    frame= 5179 fps=304 q=-0.0 size=N/A time=00:03:36.00 bitrate=N/A speed=12.7x    frame= 5359 fps=305 q=-0.0 size=N/A time=00:03:43.51 bitrate=N/A speed=12.7x    frame= 5534 fps=306 q=-0.0 size=N/A time=00:03:50.81 bitrate=N/A speed=12.8x    frame= 5719 fps=307 q=-0.0 size=N/A time=00:03:58.52 bitrate=N/A speed=12.8x    frame= 5884 fps=308 q=-0.0 size=N/A time=00:04:05.41 bitrate=N/A speed=12.8x    frame= 6067 fps=309 q=-0.0 size=N/A time=00:04:13.04 bitrate=N/A speed=12.9x    frame= 6246 fps=310 q=-0.0 size=N/A time=00:04:20.51 bitrate=N/A speed=12.9x    frame= 6420 fps=311 q=-0.0 size=N/A time=00:04:27.76 bitrate=N/A speed=  13x    frame= 6608 fps=312 q=-0.0 size=N/A time=00:04:35.60 bitrate=N/A speed=  13x    frame= 6780 fps=312 q=-0.0 size=N/A time=00:04:42.78 bitrate=N/A speed=  13x    frame= 6928 fps=312 q=-0.0 size=N/A time=00:04:48.95 bitrate=N/A speed=  13x    frame= 7097 fps=312 q=-0.0 size=N/A time=00:04:56.00 bitrate=N/A speed=  13x    frame= 7280 fps=313 q=-0.0 size=N/A time=00:05:03.63 bitrate=N/A speed=13.1x    frame= 7456 fps=314 q=-0.0 size=N/A time=00:05:10.97 bitrate=N/A speed=13.1x    frame= 7632 fps=314 q=-0.0 size=N/A time=00:05:18.31 bitrate=N/A speed=13.1x    frame= 7794 fps=314 q=-0.0 size=N/A time=00:05:25.07 bitrate=N/A speed=13.1x    frame= 7970 fps=315 q=-0.0 size=N/A time=00:05:32.41 bitrate=N/A speed=13.1x    frame= 8146 fps=315 q=-0.0 size=N/A time=00:05:39.75 bitrate=N/A speed=13.2x    frame= 8326 fps=316 q=-0.0 size=N/A time=00:05:47.26 bitrate=N/A speed=13.2x    frame= 8497 fps=316 q=-0.0 size=N/A time=00:05:54.39 bitrate=N/A speed=13.2x    frame= 8677 fps=317 q=-0.0 size=N/A time=00:06:01.90 bitrate=N/A speed=13.2x    frame= 8848 fps=317 q=-0.0 size=N/A time=00:06:09.03 bitrate=N/A speed=13.2x    frame= 9026 fps=318 q=-0.0 size=N/A time=00:06:16.45 bitrate=N/A speed=13.3x    frame= 9179 fps=317 q=-0.0 size=N/A time=00:06:22.84 bitrate=N/A speed=13.2x    frame= 9345 fps=318 q=-0.0 size=N/A time=00:06:29.76 bitrate=N/A speed=13.2x    frame= 9533 fps=318 q=-0.0 size=N/A time=00:06:37.60 bitrate=N/A speed=13.3x    frame= 9698 fps=318 q=-0.0 size=N/A time=00:06:44.48 bitrate=N/A speed=13.3x    frame= 9871 fps=319 q=-0.0 size=N/A time=00:06:51.70 bitrate=N/A speed=13.3x    frame=10048 fps=319 q=-0.0 size=N/A time=00:06:59.08 bitrate=N/A speed=13.3x    frame=10213 fps=319 q=-0.0 size=N/A time=00:07:05.96 bitrate=N/A speed=13.3x    frame=10398 fps=320 q=-0.0 size=N/A time=00:07:13.68 bitrate=N/A speed=13.3x    frame=10574 fps=320 q=-0.0 size=N/A time=00:07:21.02 bitrate=N/A speed=13.3x    frame=10739 fps=320 q=-0.0 size=N/A time=00:07:27.90 bitrate=N/A speed=13.3x    frame=10911 fps=320 q=-0.0 size=N/A time=00:07:35.07 bitrate=N/A speed=13.4x    frame=11095 fps=321 q=-0.0 size=N/A time=00:07:42.75 bitrate=N/A speed=13.4x    frame=11262 fps=321 q=-0.0 size=N/A time=00:07:49.71 bitrate=N/A speed=13.4x    frame=11443 fps=321 q=-0.0 size=N/A time=00:07:57.26 bitrate=N/A speed=13.4x    frame=11566 fps=320 q=-0.0 size=N/A time=00:08:02.39 bitrate=N/A speed=13.3x    frame=11748 fps=321 q=-0.0 size=N/A time=00:08:09.98 bitrate=N/A speed=13.4x    frame=11925 fps=321 q=-0.0 size=N/A time=00:08:17.37 bitrate=N/A speed=13.4x    frame=12107 fps=321 q=-0.0 size=N/A time=00:08:24.96 bitrate=N/A speed=13.4x    frame=12287 fps=322 q=-0.0 size=N/A time=00:08:32.47 bitrate=N/A speed=13.4x    frame=12464 fps=322 q=-0.0 size=N/A time=00:08:39.85 bitrate=N/A speed=13.4x    frame=12633 fps=322 q=-0.0 size=N/A time=00:08:46.90 bitrate=N/A speed=13.4x    frame=12815 fps=322 q=-0.0 size=N/A time=00:08:54.49 bitrate=N/A speed=13.4x    frame=12994 fps=323 q=-0.0 size=N/A time=00:09:01.95 bitrate=N/A speed=13.5x    frame=13166 fps=323 q=-0.0 size=N/A time=00:09:09.13 bitrate=N/A speed=13.5x    frame=13341 fps=323 q=-0.0 size=N/A time=00:09:16.43 bitrate=N/A speed=13.5x    frame=13514 fps=323 q=-0.0 size=N/A time=00:09:23.64 bitrate=N/A speed=13.5x    frame=13693 fps=324 q=-0.0 size=N/A time=00:09:31.11 bitrate=N/A speed=13.5x    frame=13837 fps=323 q=-0.0 size=N/A time=00:09:37.11 bitrate=N/A speed=13.5x    frame=14000 fps=323 q=-0.0 size=N/A time=00:09:43.91 bitrate=N/A speed=13.5x    frame=14170 fps=323 q=-0.0 size=N/A time=00:09:51.00 bitrate=N/A speed=13.5x    frame=14340 fps=323 q=-0.0 size=N/A time=00:09:58.09 bitrate=N/A speed=13.5x    frame=14525 fps=323 q=-0.0 size=N/A time=00:10:05.81 bitrate=N/A speed=13.5x    frame=14702 fps=324 q=-0.0 size=N/A time=00:10:13.19 bitrate=N/A speed=13.5x    frame=14877 fps=324 q=-0.0 size=N/A time=00:10:20.49 bitrate=N/A speed=13.5x    frame=15052 fps=324 q=-0.0 size=N/A time=00:10:27.79 bitrate=N/A speed=13.5x    frame=15195 fps=324 q=-0.0 size=N/A time=00:10:33.75 bitrate=N/A speed=13.5x    frame=15371 fps=324 q=-0.0 size=N/A time=00:10:41.09 bitrate=N/A speed=13.5x    frame=15551 fps=324 q=-0.0 size=N/A time=00:10:48.60 bitrate=N/A speed=13.5x    frame=15732 fps=324 q=-0.0 size=N/A time=00:10:56.15 bitrate=N/A speed=13.5x    frame=15908 fps=324 q=-0.0 size=N/A time=00:11:03.49 bitrate=N/A speed=13.5x    frame=16086 fps=325 q=-0.0 size=N/A time=00:11:10.92 bitrate=N/A speed=13.5x    frame=16211 fps=324 q=-0.0 size=N/A time=00:11:16.13 bitrate=N/A speed=13.5x    frame=16399 fps=324 q=-0.0 size=N/A time=00:11:23.97 bitrate=N/A speed=13.5x    frame=16560 fps=324 q=-0.0 size=N/A time=00:11:30.69 bitrate=N/A speed=13.5x    frame=16754 fps=325 q=-0.0 size=N/A time=00:11:38.78 bitrate=N/A speed=13.5x    frame=16930 fps=325 q=-0.0 size=N/A time=00:11:46.12 bitrate=N/A speed=13.5x    frame=17105 fps=325 q=-0.0 size=N/A time=00:11:53.42 bitrate=N/A speed=13.6x    frame=17281 fps=325 q=-0.0 size=N/A time=00:12:00.76 bitrate=N/A speed=13.6x    frame=17461 fps=325 q=-0.0 size=N/A time=00:12:08.26 bitrate=N/A speed=13.6x    frame=17639 fps=326 q=-0.0 size=N/A time=00:12:15.69 bitrate=N/A speed=13.6x    frame=17807 fps=326 q=-0.0 size=N/A time=00:12:22.70 bitrate=N/A speed=13.6x    frame=17978 fps=326 q=-0.0 size=N/A time=00:12:29.83 bitrate=N/A speed=13.6x    frame=18164 fps=326 q=-0.0 size=N/A time=00:12:37.59 bitrate=N/A speed=13.6x    frame=18328 fps=326 q=-0.0 size=N/A time=00:12:44.43 bitrate=N/A speed=13.6x    frame=18471 fps=325 q=-0.0 size=N/A time=00:12:50.39 bitrate=N/A speed=13.6x    frame=18638 fps=325 q=-0.0 size=N/A time=00:12:57.35 bitrate=N/A speed=13.6x    frame=18817 fps=326 q=-0.0 size=N/A time=00:13:04.82 bitrate=N/A speed=13.6x    frame=18990 fps=326 q=-0.0 size=N/A time=00:13:12.04 bitrate=N/A speed=13.6x    frame=19178 fps=326 q=-0.0 size=N/A time=00:13:19.88 bitrate=N/A speed=13.6x    frame=19353 fps=326 q=-0.0 size=N/A time=00:13:27.18 bitrate=N/A speed=13.6x    frame=19524 fps=326 q=-0.0 size=N/A time=00:13:34.31 bitrate=N/A speed=13.6x    frame=19699 fps=326 q=-0.0 size=N/A time=00:13:41.61 bitrate=N/A speed=13.6x    frame=19829 fps=326 q=-0.0 size=N/A time=00:13:47.03 bitrate=N/A speed=13.6x    frame=19957 fps=325 q=-0.0 size=N/A time=00:13:52.37 bitrate=N/A speed=13.6x    frame=20139 fps=325 q=-0.0 size=N/A time=00:13:59.96 bitrate=N/A speed=13.6x    frame=20335 fps=326 q=-0.0 size=N/A time=00:14:08.13 bitrate=N/A speed=13.6x    frame=20506 fps=326 q=-0.0 size=N/A time=00:14:15.27 bitrate=N/A speed=13.6x    frame=20675 fps=326 q=-0.0 size=N/A time=00:14:22.31 bitrate=N/A speed=13.6x    frame=20847 fps=326 q=-0.0 size=N/A time=00:14:29.49 bitrate=N/A speed=13.6x    frame=21039 fps=326 q=-0.0 size=N/A time=00:14:37.50 bitrate=N/A speed=13.6x    frame=21221 fps=326 q=-0.0 size=N/A time=00:14:45.09 bitrate=N/A speed=13.6x    frame=21394 fps=326 q=-0.0 size=N/A time=00:14:52.30 bitrate=N/A speed=13.6x    frame=21577 fps=327 q=-0.0 size=N/A time=00:14:59.94 bitrate=N/A speed=13.6x    frame=21757 fps=327 q=-0.0 size=N/A time=00:15:07.44 bitrate=N/A speed=13.6x    frame=21935 fps=327 q=-0.0 size=N/A time=00:15:14.87 bitrate=N/A speed=13.6x    frame=22107 fps=327 q=-0.0 size=N/A time=00:15:22.04 bitrate=N/A speed=13.6x    frame=22244 fps=327 q=-0.0 size=N/A time=00:15:27.76 bitrate=N/A speed=13.6x    frame=22427 fps=327 q=-0.0 size=N/A time=00:15:35.39 bitrate=N/A speed=13.6x    frame=22589 fps=327 q=-0.0 size=N/A time=00:15:42.14 bitrate=N/A speed=13.6x    frame=22761 fps=327 q=-0.0 size=N/A time=00:15:49.32 bitrate=N/A speed=13.6x    frame=22937 fps=327 q=-0.0 size=N/A time=00:15:56.66 bitrate=N/A speed=13.6x    frame=23127 fps=327 q=-0.0 size=N/A time=00:16:04.58 bitrate=N/A speed=13.6x    frame=23307 fps=327 q=-0.0 size=N/A time=00:16:12.09 bitrate=N/A speed=13.6x    frame=23498 fps=328 q=-0.0 size=N/A time=00:16:20.06 bitrate=N/A speed=13.7x    frame=23685 fps=328 q=-0.0 size=N/A time=00:16:27.86 bitrate=N/A speed=13.7x    frame=23878 fps=328 q=-0.0 size=N/A time=00:16:35.91 bitrate=N/A speed=13.7x    frame=24065 fps=328 q=-0.0 size=N/A time=00:16:43.71 bitrate=N/A speed=13.7x    frame=24245 fps=329 q=-0.0 size=N/A time=00:16:51.21 bitrate=N/A speed=13.7x    frame=24438 fps=329 q=-0.0 size=N/A time=00:16:59.26 bitrate=N/A speed=13.7x    frame=24596 fps=329 q=-0.0 size=N/A time=00:17:05.85 bitrate=N/A speed=13.7x    frame=24770 fps=329 q=-0.0 size=N/A time=00:17:13.11 bitrate=N/A speed=13.7x    frame=24960 fps=329 q=-0.0 size=N/A time=00:17:21.04 bitrate=N/A speed=13.7x    frame=25148 fps=329 q=-0.0 size=N/A time=00:17:28.88 bitrate=N/A speed=13.7x    frame=25340 fps=330 q=-0.0 size=N/A time=00:17:36.88 bitrate=N/A speed=13.7x    frame=25524 fps=330 q=-0.0 size=N/A time=00:17:44.56 bitrate=N/A speed=13.8x    frame=25715 fps=330 q=-0.0 size=N/A time=00:17:52.52 bitrate=N/A speed=13.8x    frame=25900 fps=330 q=-0.0 size=N/A time=00:18:00.24 bitrate=N/A speed=13.8x    frame=26089 fps=330 q=-0.0 size=N/A time=00:18:08.12 bitrate=N/A speed=13.8x    frame=26278 fps=331 q=-0.0 size=N/A time=00:18:16.01 bitrate=N/A speed=13.8x    frame=26472 fps=331 q=-0.0 size=N/A time=00:18:24.10 bitrate=N/A speed=13.8x    frame=26661 fps=331 q=-0.0 size=N/A time=00:18:31.98 bitrate=N/A speed=13.8x    frame=26849 fps=331 q=-0.0 size=N/A time=00:18:39.82 bitrate=N/A speed=13.8x    frame=27027 fps=331 q=-0.0 size=N/A time=00:18:47.25 bitrate=N/A speed=13.8x    frame=27157 fps=331 q=-0.0 size=N/A time=00:18:52.67 bitrate=N/A speed=13.8x    frame=27342 fps=331 q=-0.0 size=N/A time=00:19:00.38 bitrate=N/A speed=13.8x    frame=27511 fps=331 q=-0.0 size=N/A time=00:19:07.43 bitrate=N/A speed=13.8x    frame=27691 fps=331 q=-0.0 size=N/A time=00:19:14.94 bitrate=N/A speed=13.8x    frame=27861 fps=331 q=-0.0 size=N/A time=00:19:22.03 bitrate=N/A speed=13.8x    frame=28032 fps=331 q=-0.0 size=N/A time=00:19:29.16 bitrate=N/A speed=13.8x    frame=28201 fps=331 q=-0.0 size=N/A time=00:19:36.21 bitrate=N/A speed=13.8x    frame=28384 fps=331 q=-0.0 size=N/A time=00:19:43.84 bitrate=N/A speed=13.8x    frame=28553 fps=331 q=-0.0 size=N/A time=00:19:50.89 bitrate=N/A speed=13.8x    frame=28723 fps=331 q=-0.0 size=N/A time=00:19:57.98 bitrate=N/A speed=13.8x    frame=28891 fps=331 q=-0.0 size=N/A time=00:20:04.99 bitrate=N/A speed=13.8x    frame=29052 fps=331 q=-0.0 size=N/A time=00:20:11.71 bitrate=N/A speed=13.8x    frame=29225 fps=331 q=-0.0 size=N/A time=00:20:18.92 bitrate=N/A speed=13.8x    frame=29388 fps=331 q=-0.0 size=N/A time=00:20:25.72 bitrate=N/A speed=13.8x    frame=29523 fps=331 q=-0.0 size=N/A time=00:20:31.35 bitrate=N/A speed=13.8x    frame=29688 fps=331 q=-0.0 size=N/A time=00:20:38.23 bitrate=N/A speed=13.8x    frame=29848 fps=330 q=-0.0 size=N/A time=00:20:44.91 bitrate=N/A speed=13.8x    frame=30001 fps=330 q=-0.0 size=N/A time=00:20:51.29 bitrate=N/A speed=13.8x    frame=30165 fps=330 q=-0.0 size=N/A time=00:20:58.13 bitrate=N/A speed=13.8x    frame=30336 fps=330 q=-0.0 size=N/A time=00:21:05.26 bitrate=N/A speed=13.8x    frame=30512 fps=330 q=-0.0 size=N/A time=00:21:12.60 bitrate=N/A speed=13.8x    frame=30679 fps=330 q=-0.0 size=N/A time=00:21:19.56 bitrate=N/A speed=13.8x    frame=30858 fps=330 q=-0.0 size=N/A time=00:21:27.03 bitrate=N/A speed=13.8x    frame=31038 fps=330 q=-0.0 size=N/A time=00:21:34.54 bitrate=N/A speed=13.8x    frame=31219 fps=331 q=-0.0 size=N/A time=00:21:42.09 bitrate=N/A speed=13.8x    frame=31411 fps=331 q=-0.0 size=N/A time=00:21:50.10 bitrate=N/A speed=13.8x    frame=31583 fps=331 q=-0.0 size=N/A time=00:21:57.27 bitrate=N/A speed=13.8x    frame=31712 fps=330 q=-0.0 size=N/A time=00:22:02.65 bitrate=N/A speed=13.8x    frame=31881 fps=330 q=-0.0 size=N/A time=00:22:09.70 bitrate=N/A speed=13.8x    frame=32049 fps=330 q=-0.0 size=N/A time=00:22:16.71 bitrate=N/A speed=13.8x    frame=32220 fps=330 q=-0.0 size=N/A time=00:22:23.84 bitrate=N/A speed=13.8x    frame=32395 fps=330 q=-0.0 size=N/A time=00:22:31.14 bitrate=N/A speed=13.8x    frame=32573 fps=330 q=-0.0 size=N/A time=00:22:38.56 bitrate=N/A speed=13.8x    frame=32710 fps=330 q=-0.0 size=N/A time=00:22:44.27 bitrate=N/A speed=13.8x    frame=32861 fps=330 q=-0.0 size=N/A time=00:22:50.57 bitrate=N/A speed=13.8x    frame=33033 fps=330 q=-0.0 size=N/A time=00:22:57.75 bitrate=N/A speed=13.8x    frame=33198 fps=330 q=-0.0 size=N/A time=00:23:04.63 bitrate=N/A speed=13.8x    frame=33377 fps=330 q=-0.0 size=N/A time=00:23:12.09 bitrate=N/A speed=13.8x    frame=33519 fps=330 q=-0.0 size=N/A time=00:23:18.02 bitrate=N/A speed=13.8x    frame=33659 fps=329 q=-0.0 size=N/A time=00:23:23.86 bitrate=N/A speed=13.7x    frame=33782 fps=329 q=-0.0 size=N/A time=00:23:28.99 bitrate=N/A speed=13.7x    frame=33882 fps=328 q=-0.0 size=N/A time=00:23:33.16 bitrate=N/A speed=13.7x    frame=34030 fps=328 q=-0.0 size=N/A time=00:23:39.33 bitrate=N/A speed=13.7x    frame=34187 fps=328 q=-0.0 size=N/A time=00:23:45.88 bitrate=N/A speed=13.7x    frame=34325 fps=328 q=-0.0 size=N/A time=00:23:51.63 bitrate=N/A speed=13.7x    frame=34442 fps=327 q=-0.0 size=N/A time=00:23:56.51 bitrate=N/A speed=13.6x    frame=34618 fps=327 q=-0.0 size=N/A time=00:24:03.85 bitrate=N/A speed=13.6x    [Parsed_psnr_16 @ 00000217403a6c00] PSNR y:48.963764 u:50.335377 v:50.386112 average:49.381388 min:38.009039 max:inf
[out#0/null @ 0000021732effe80] video:14903KiB audio:271276KiB subtitle:0KiB other streams:0KiB global headers:0KiB muxing overhead: unknown
frame=34683 fps=327 q=-0.0 Lsize=N/A time=00:24:06.57 bitrate=N/A speed=13.6x    
